# xmcd CD database file
#
# Track frame offsets:
#	150
#	25840
#	58576
#	83562
#	111489
#	130983
#	164136
#	194152
#	222735
#
# Disc length: 3286 seconds
#
# Revision: 2
# Processed by: cddbd v1.5.2PL0 Copyright (c) Steve Scherf et al.
# Submitted via: CDex 1.50beta10
#
DISCID=8d0cd409
DTITLE=Omar Sosa - Mulatos
DYEAR=2004
DGENRE=Jazz
TTITLE0=La Tra
TTITLE1=Ternura
TTITLE2=Dos Caminos
TTITLE3=Nuevo Manto
TTITLE4=Reposo
TTITLE5=La Llamada
TTITLE6=L3zero
TTITLE7=Iyawo
TTITLE8=El Consenso
EXTD=YEAR: 2004
EXTT0=
EXTT1=
EXTT2=
EXTT3=
EXTT4=
EXTT5=
EXTT6=
EXTT7=
EXTT8=
PLAYORDER=
